# xmcd
#
# Track frame offsets: 
#        150
#        15745
#        29957
#        46705
#        60895
#        76420
#        94955
#        110432
#        127387
#        143322
#        160007
#        175697
#        192332
#        207400
#        228347
#
# Disc length: 3294 seconds
#
# Revision: 3
# Processed by: cddbd v1.5.2PL0 Copyright (c) Steve Scherf et al.
# Submitted via: ExactAudioCopy v0.99pb5
#
DISCID=c40cdc0f
DTITLE=Berg Andrea - Best of
DYEAR=1900
DGENRE=
TTITLE0=Berg Andrea - Die Gefuehle haben Schweigepflicht
TTITLE1=Berg Andrea - Wenn du mich willst (dann kuess mich doch)
TTITLE2=Berg Andrea - Bittersuesse Zaertlichkeit
TTITLE3=Berg Andrea - Kilimandscharo
TTITLE4=Berg Andrea - Warum nur trueumen
TTITLE5=Berg Andrea - Wenn du mich beruehrst
TTITLE6=Berg Andrea - Diese Nacht soll nie enden
TTITLE7=Berg Andrea - Du hast mich tausendmal belogen
TTITLE8=Berg Andrea - Tango amore
TTITLE9=Berg Andrea - Ich sterbe nicht nochmal
TTITLE10=Berg Andrea - Vielleicht ein Traum zuviel
TTITLE11=Berg Andrea - Und wenn ich geh'
TTITLE12=Berg Andrea - Geh doch, wenn du sie liebst
TTITLE13=Berg Andrea - Auch heute noch
TTITLE14=Berg Andrea - Andrea Berg Party Mix
EXTD=
EXTT0=
EXTT1=
EXTT2=
EXTT3=
EXTT4=
EXTT5=
EXTT6=
EXTT7=
EXTT8=
EXTT9=
EXTT10=
EXTT11=
EXTT12=
EXTT13=
EXTT14=
PLAYORDER=
